<svg xmlns="http://www.w3.org/2000/svg" style="display:none">
<defs>
<symbol id="i-phone" viewBox="0 0 24 24"><path d="M6.6 3.5h2.6l1.4 4.1-2 1.4a11.5 11.5 0 0 0 6.4 6.4l1.4-2 4.1 1.4v2.6a2 2 0 0 1-2.2 2A16.6 16.6 0 0 1 4.6 5.7a2 2 0 0 1 2-2.2z" fill="none" stroke="currentColor" stroke-width="1.9" stroke-linejoin="round"/></symbol>
<symbol id="i-video" viewBox="0 0 24 24"><rect x="3" y="6" width="12.5" height="12" rx="2.5" fill="none" stroke="currentColor" stroke-width="1.9"/><path d="m15.5 10.5 5-3v9l-5-3" fill="none" stroke="currentColor" stroke-width="1.9" stroke-linejoin="round"/></symbol>
<symbol id="i-home" viewBox="0 0 24 24"><path d="M4 10.5 12 4l8 6.5V20H4z" fill="none" stroke="currentColor" stroke-width="1.9" stroke-linejoin="round"/><path d="M8.5 14h7" stroke="currentColor" stroke-width="1.9" stroke-linecap="round"/></symbol>
<symbol id="i-storm" viewBox="0 0 24 24"><path d="M7 16.5a4.5 4.5 0 1 1 1.2-8.8A5.5 5.5 0 0 1 18.8 9 3.8 3.8 0 0 1 18 16.5" fill="none" stroke="currentColor" stroke-width="1.9" stroke-linecap="round"/><path d="m12.5 13-2.5 4h3.5L11 21" fill="none" stroke="currentColor" stroke-width="1.9" stroke-linecap="round" stroke-linejoin="round"/></symbol>
<symbol id="i-key" viewBox="0 0 24 24"><circle cx="8" cy="15" r="4" fill="none" stroke="currentColor" stroke-width="1.9"/><path d="m11 12 8.5-8.5M16.5 6.5l2.5 2.5M14.5 8.5l2 2" fill="none" stroke="currentColor" stroke-width="1.9" stroke-linecap="round"/></symbol>
<symbol id="i-tool" viewBox="0 0 24 24"><path d="M14.7 6.3a4 4 0 0 0 5 5l-9.4 9.4a2.1 2.1 0 0 1-3-3z" fill="none" stroke="currentColor" stroke-width="1.9" stroke-linejoin="round"/><path d="M14.7 6.3 17.5 3.5l3 3-2.8 2.8" fill="none" stroke="currentColor" stroke-width="1.9" stroke-linejoin="round"/></symbol>
<symbol id="i-verify" viewBox="0 0 24 24"><path d="M12 3 5 6v5.5c0 4.3 3 7.8 7 9.5 4-1.7 7-5.2 7-9.5V6z" fill="none" stroke="currentColor" stroke-width="1.9" stroke-linejoin="round"/><path d="m8.8 12 2.3 2.3 4.3-4.6" fill="none" stroke="currentColor" stroke-width="1.9" stroke-linecap="round" stroke-linejoin="round"/></symbol>
<symbol id="i-calendar" viewBox="0 0 24 24"><rect x="3.5" y="5" width="17" height="15.5" rx="2.5" fill="none" stroke="currentColor" stroke-width="1.9"/><path d="M3.5 10h17M8 3v4M16 3v4" stroke="currentColor" stroke-width="1.9" stroke-linecap="round"/></symbol>
<symbol id="i-clipboard" viewBox="0 0 24 24"><rect x="5" y="4.5" width="14" height="16.5" rx="2" fill="none" stroke="currentColor" stroke-width="1.9"/><rect x="9" y="3" width="6" height="3.5" rx="1" fill="none" stroke="currentColor" stroke-width="1.9"/><path d="M8.5 11h7M8.5 14.5h7M8.5 18h4" stroke="currentColor" stroke-width="1.9" stroke-linecap="round"/></symbol>
<symbol id="i-discharge" viewBox="0 0 24 24"><path d="M3 18V7M3 13h9.5a3 3 0 0 1 3 3v2M3 18h12.5" fill="none" stroke="currentColor" stroke-width="1.9" stroke-linecap="round" stroke-linejoin="round"/><circle cx="7" cy="10" r="1.8" fill="none" stroke="currentColor" stroke-width="1.9"/><path d="M17 8h4.5m0 0-2-2m2 2-2 2" fill="none" stroke="currentColor" stroke-width="1.9" stroke-linecap="round" stroke-linejoin="round"/></symbol>
<symbol id="i-person" viewBox="0 0 24 24"><circle cx="12" cy="8" r="3.8" fill="none" stroke="currentColor" stroke-width="1.9"/><path d="M4.5 20.5a7.5 7.5 0 0 1 15 0" fill="none" stroke="currentColor" stroke-width="1.9" stroke-linecap="round"/></symbol>
<symbol id="i-family" viewBox="0 0 24 24"><circle cx="8" cy="7.5" r="3" fill="none" stroke="currentColor" stroke-width="1.9"/><circle cx="16.5" cy="9.5" r="2.4" fill="none" stroke="currentColor" stroke-width="1.9"/><path d="M2.5 19.5a5.5 5.5 0 0 1 11 0M13.5 16a4.2 4.2 0 0 1 8 3.5" fill="none" stroke="currentColor" stroke-width="1.9" stroke-linecap="round"/></symbol>
<symbol id="i-care" viewBox="0 0 24 24"><path d="M12 10.5c-1.3-2.6-5.5-2.2-5.5 1 0 2.2 2.7 4 5.5 6 2.8-2 5.5-3.8 5.5-6 0-3.2-4.2-3.6-5.5-1z" fill="none" stroke="currentColor" stroke-width="1.9" stroke-linejoin="round"/><path d="M3 15.5c1.5 0 2.5 1 4 2.5l2 2h9" fill="none" stroke="currentColor" stroke-width="1.9" stroke-linecap="round" stroke-linejoin="round"/></symbol>
<symbol id="i-steth" viewBox="0 0 24 24"><path d="M6 3.5v5a4 4 0 0 0 8 0v-5" fill="none" stroke="currentColor" stroke-width="1.9" stroke-linecap="round"/><path d="M10 12.5V15a4.5 4.5 0 0 0 9 0v-1.5" fill="none" stroke="currentColor" stroke-width="1.9" stroke-linecap="round"/><circle cx="19" cy="11.5" r="2" fill="none" stroke="currentColor" stroke-width="1.9"/></symbol>
<symbol id="i-walker" viewBox="0 0 24 24"><circle cx="9" cy="4.5" r="2" fill="none" stroke="currentColor" stroke-width="1.9"/><path d="m9 8-1.5 6 2.5 2.5V21M7.5 14 5 21M9 8l3 3.5h3" fill="none" stroke="currentColor" stroke-width="1.9" stroke-linecap="round" stroke-linejoin="round"/><path d="M15 8.5h4V21M15 8.5V21" fill="none" stroke="currentColor" stroke-width="1.9" stroke-linecap="round"/></symbol>
<symbol id="i-building" viewBox="0 0 24 24"><rect x="4" y="3.5" width="16" height="17.5" rx="1.5" fill="none" stroke="currentColor" stroke-width="1.9"/><path d="M12 7v5M9.5 9.5h5M10 21v-4h4v4" fill="none" stroke="currentColor" stroke-width="1.9" stroke-linecap="round"/></symbol>
<symbol id="i-star" viewBox="0 0 24 24"><path d="m12 3.5 2.6 5.3 5.9.9-4.3 4.1 1 5.8L12 16.9l-5.2 2.7 1-5.8-4.3-4.1 5.9-.9z" fill="none" stroke="currentColor" stroke-width="1.9" stroke-linejoin="round"/></symbol>
<symbol id="i-download" viewBox="0 0 24 24"><path d="M12 4v11m0 0-4.5-4.5M12 15l4.5-4.5M4.5 19.5h15" fill="none" stroke="currentColor" stroke-width="1.9" stroke-linecap="round" stroke-linejoin="round"/></symbol>
<symbol id="i-card" viewBox="0 0 24 24"><rect x="3" y="5.5" width="18" height="13" rx="2.5" fill="none" stroke="currentColor" stroke-width="1.9"/><path d="M3 10h18M7 15h4" stroke="currentColor" stroke-width="1.9" stroke-linecap="round"/></symbol>
<symbol id="i-pin" viewBox="0 0 24 24"><path d="M12 21s6.5-6 6.5-11a6.5 6.5 0 0 0-13 0c0 5 6.5 11 6.5 11z" fill="none" stroke="currentColor" stroke-width="1.9" stroke-linejoin="round"/><circle cx="12" cy="10" r="2.3" fill="none" stroke="currentColor" stroke-width="1.9"/></symbol>
<symbol id="i-share" viewBox="0 0 24 24"><path d="M13.5 5.5 19 11l-5.5 5.5M19 11H10a5.5 5.5 0 0 0-5.5 5.5V19" fill="none" stroke="currentColor" stroke-width="1.9" stroke-linecap="round" stroke-linejoin="round"/></symbol>
<symbol id="i-menu" viewBox="0 0 24 24"><path d="M4 7h16M4 12h16M4 17h16" stroke="currentColor" stroke-width="2" stroke-linecap="round"/></symbol>
<symbol id="i-close" viewBox="0 0 24 24"><path d="m6 6 12 12M18 6 6 18" stroke="currentColor" stroke-width="2" stroke-linecap="round"/></symbol>
<symbol id="i-check" viewBox="0 0 24 24"><path d="m5 12.5 4.5 4.5L19 7.5" fill="none" stroke="currentColor" stroke-width="2.2" stroke-linecap="round" stroke-linejoin="round"/></symbol>
<symbol id="i-alert" viewBox="0 0 24 24"><path d="M12 4 2.8 19.5h18.4z" fill="none" stroke="currentColor" stroke-width="1.9" stroke-linejoin="round"/><path d="M12 10v4.5" stroke="currentColor" stroke-width="2" stroke-linecap="round"/><circle cx="12" cy="17" r="1.1" fill="currentColor"/></symbol>
<symbol id="i-print" viewBox="0 0 24 24"><path d="M7 9V3.5h10V9M7 17H4.5V9h15v8H17" fill="none" stroke="currentColor" stroke-width="1.9" stroke-linejoin="round"/><rect x="7" y="14" width="10" height="6.5" fill="none" stroke="currentColor" stroke-width="1.9"/></symbol>
<symbol id="i-mail" viewBox="0 0 24 24"><rect x="3" y="5.5" width="18" height="13" rx="2" fill="none" stroke="currentColor" stroke-width="1.9"/><path d="m3.5 6.5 8.5 6.5 8.5-6.5" fill="none" stroke="currentColor" stroke-width="1.9" stroke-linejoin="round"/></symbol>
</defs>
</svg>
